<mxfile host="65bd71144e">
    <diagram id="dsiy-RBZjl-3mSS5KEwm" name="Darstellungelemente">
        <mxGraphModel dx="513" dy="796" grid="0" gridSize="10" guides="1" tooltips="1" connect="1" arrows="1" fold="1" page="1" pageScale="1" pageWidth="827" pageHeight="1169" math="0" shadow="0">
            <root>
                <mxCell id="0"/>
                <mxCell id="1" parent="0"/>
                <mxCell id="Ci4IiLtJ5elulCZRR47R-3" value="Bezeichnung" style="shape=umlLifeline;perimeter=lifelinePerimeter;whiteSpace=wrap;html=1;container=1;collapsible=0;recursiveResize=0;outlineConnect=0;sketch=1;" parent="1" vertex="1">
                    <mxGeometry x="160" y="80" width="100" height="300" as="geometry"/>
                </mxCell>
                <mxCell id="Ci4IiLtJ5elulCZRR47R-4" value="" style="html=1;points=[];perimeter=orthogonalPerimeter;sketch=1;" parent="Ci4IiLtJ5elulCZRR47R-3" vertex="1">
                    <mxGeometry x="45" y="90" width="10" height="120" as="geometry"/>
                </mxCell>
                <mxCell id="Ci4IiLtJ5elulCZRR47R-5" value="Bezeichnung" style="shape=umlLifeline;perimeter=lifelinePerimeter;whiteSpace=wrap;html=1;container=1;collapsible=0;recursiveResize=0;outlineConnect=0;sketch=1;" parent="1" vertex="1">
                    <mxGeometry x="360" y="80" width="100" height="300" as="geometry"/>
                </mxCell>
                <mxCell id="Ci4IiLtJ5elulCZRR47R-6" value="" style="html=1;points=[];perimeter=orthogonalPerimeter;sketch=1;" parent="Ci4IiLtJ5elulCZRR47R-5" vertex="1">
                    <mxGeometry x="45" y="110" width="10" height="40" as="geometry"/>
                </mxCell>
                <mxCell id="Ci4IiLtJ5elulCZRR47R-7" value="" style="shape=umlDestroy;sketch=1;" parent="Ci4IiLtJ5elulCZRR47R-5" vertex="1">
                    <mxGeometry x="35" y="290" width="30" height="30" as="geometry"/>
                </mxCell>
                <mxCell id="Ci4IiLtJ5elulCZRR47R-14" value="" style="html=1;points=[];perimeter=orthogonalPerimeter;sketch=1;" parent="Ci4IiLtJ5elulCZRR47R-5" vertex="1">
                    <mxGeometry x="44" y="204" width="10" height="30" as="geometry"/>
                </mxCell>
                <mxCell id="Ci4IiLtJ5elulCZRR47R-9" style="edgeStyle=orthogonalEdgeStyle;rounded=0;orthogonalLoop=1;jettySize=auto;html=1;entryX=-0.143;entryY=0.01;entryDx=0;entryDy=0;entryPerimeter=0;endArrow=open;endFill=0;sketch=1;" parent="1" source="Ci4IiLtJ5elulCZRR47R-8" target="Ci4IiLtJ5elulCZRR47R-4" edge="1">
                    <mxGeometry relative="1" as="geometry"/>
                </mxCell>
                <mxCell id="Ci4IiLtJ5elulCZRR47R-8" value="Actor" style="shape=umlActor;verticalLabelPosition=bottom;verticalAlign=top;html=1;sketch=1;" parent="1" vertex="1">
                    <mxGeometry x="70" y="142" width="30" height="60" as="geometry"/>
                </mxCell>
                <mxCell id="Ci4IiLtJ5elulCZRR47R-10" style="edgeStyle=orthogonalEdgeStyle;rounded=0;orthogonalLoop=1;jettySize=auto;html=1;endArrow=open;endFill=0;sketch=1;" parent="1" source="Ci4IiLtJ5elulCZRR47R-4" edge="1">
                    <mxGeometry relative="1" as="geometry">
                        <mxPoint x="400" y="190" as="targetPoint"/>
                        <Array as="points">
                            <mxPoint x="320" y="190"/>
                            <mxPoint x="320" y="190"/>
                        </Array>
                    </mxGeometry>
                </mxCell>
                <mxCell id="Ci4IiLtJ5elulCZRR47R-11" style="rounded=0;orthogonalLoop=1;jettySize=auto;html=1;endArrow=open;endFill=0;dashed=1;sketch=1;" parent="1" edge="1">
                    <mxGeometry relative="1" as="geometry">
                        <mxPoint x="405" y="229" as="sourcePoint"/>
                        <mxPoint x="215" y="229" as="targetPoint"/>
                    </mxGeometry>
                </mxCell>
                <mxCell id="Ci4IiLtJ5elulCZRR47R-12" value="Methodensignatur" style="text;html=1;align=center;verticalAlign=middle;resizable=0;points=[];autosize=1;strokeColor=none;fillColor=none;sketch=1;" parent="1" vertex="1">
                    <mxGeometry x="260" y="170" width="110" height="20" as="geometry"/>
                </mxCell>
                <mxCell id="Ci4IiLtJ5elulCZRR47R-13" value="Ergebnis" style="text;html=1;align=center;verticalAlign=middle;resizable=0;points=[];autosize=1;strokeColor=none;fillColor=none;sketch=1;" parent="1" vertex="1">
                    <mxGeometry x="285" y="210" width="60" height="20" as="geometry"/>
                </mxCell>
                <mxCell id="Ci4IiLtJ5elulCZRR47R-15" style="edgeStyle=none;rounded=0;orthogonalLoop=1;jettySize=auto;html=1;entryX=-0.271;entryY=0.01;entryDx=0;entryDy=0;entryPerimeter=0;endArrow=async;endFill=1;sketch=1;" parent="1" edge="1">
                    <mxGeometry relative="1" as="geometry">
                        <mxPoint x="215" y="282.30000000000007" as="sourcePoint"/>
                        <mxPoint x="401.28999999999996" y="282.30000000000007" as="targetPoint"/>
                    </mxGeometry>
                </mxCell>
                <mxCell id="Ci4IiLtJ5elulCZRR47R-16" value="Methodensignatur" style="text;html=1;align=center;verticalAlign=middle;resizable=0;points=[];autosize=1;strokeColor=none;fillColor=none;sketch=1;" parent="1" vertex="1">
                    <mxGeometry x="260" y="260" width="110" height="20" as="geometry"/>
                </mxCell>
                <mxCell id="Ci4IiLtJ5elulCZRR47R-17" value="ErklÃ¤rung" style="shape=umlFrame;tabPosition=left;html=1;boundedLbl=1;labelInHeader=1;width=80;height=20;sketch=1;" parent="1" vertex="1">
                    <mxGeometry x="110" y="250" width="330" height="80" as="geometry"/>
                </mxCell>
            </root>
        </mxGraphModel>
    </diagram>
</mxfile>